{"accessors":[{"bufferView":0,"componentType":5126,"count":65531,"max":[-1.1684000492095947,2.1433870792388916,-0.1316290944814682],"min":[-1.4677938222885132,1.831808090209961,-0.5741345882415771],"type":"VEC3"},{"bufferView":1,"componentType":5125,"count":193619,"type":"SCALAR"},{"bufferView":2,"componentType":5126,"count":65531,"type":"VEC3"},{"bufferView":3,"componentType":5126,"count":65531,"type":"VEC4"},{"bufferView":4,"componentType":5126,"count":65531,"type":"VEC4"},{"bufferView":5,"componentType":5126,"count":65531,"type":"VEC2"},{"bufferView":6,"componentType":5126,"count":65531,"max":[-1.1599550247192383,2.116015672683716,0.14129434525966644],"min":[-1.4668117761611938,1.8185079097747803,-0.5460232496261597],"type":"VEC3"},{"bufferView":7,"componentType":5125,"count":191890,"type":"SCALAR"},{"bufferView":8,"componentType":5126,"count":65531,"type":"VEC3"},{"bufferView":9,"componentType":5126,"count":65531,"type":"VEC4"},{"bufferView":10,"componentType":5126,"count":65531,"type":"VEC4"},{"bufferView":11,"componentType":5126,"count":65531,"type":"VEC2"},{"bufferView":12,"componentType":5126,"count":65531,"max":[-1.1961572170257568,2.2479248046875,-0.13547630608081818],"min":[-1.5572409629821777,1.808998703956604,-0.7850836515426636],"type":"VEC3"},{"bufferView":13,"componentType":5125,"count":185210,"type":"SCALAR"},{"bufferView":14,"componentType":5126,"count":65531,"type":"VEC3"},{"bufferView":15,"componentType":5126,"count":65531,"type":"VEC4"},{"bufferView":16,"componentType":5126,"count":65531,"type":"VEC4"},{"bufferView":17,"componentType":5126,"count":65531,"type":"VEC2"},{"bufferView":18,"componentType":5126,"count":65531,"max":[-1.0675183534622192,2.2901597023010254,-0.4513285458087921],"min":[-1.5202313661575317,1.707651972770691,-0.9845672249794006],"type":"VEC3"},{"bufferView":19,"componentType":5125,"count":190816,"type":"SCALAR"},{"bufferView":20,"componentType":5126,"count":65531,"type":"VEC3"},{"bufferView":21,"componentType":5126,"count":65531,"type":"VEC4"},{"bufferView":22,"componentType":5126,"count":65531,"type":"VEC4"},{"bufferView":23,"componentType":5126,"count":65531,"type":"VEC2"},{"bufferView":24,"componentType":5126,"count":65531,"max":[-1.0562583208084106,2.2910807132720947,-0.7191096544265747],"min":[-1.6815592050552368,1.844037413597107,-1.1060781478881836],"type":"VEC3"},{"bufferView":25,"componentType":5125,"count":189121,"type":"SCALAR"},{"bufferView":26,"componentType":5126,"count":65531,"type":"VEC3"},{"bufferView":27,"componentType":5126,"count":65531,"type":"VEC4"},{"bufferView":28,"componentType":5126,"count":65531,"type":"VEC4"},{"bufferView":29,"componentType":5126,"count":65531,"type":"VEC2"},{"bufferView":30,"componentType":5126,"count":65531,"max":[-1.060448169708252,2.2866687774658203,-0.7018543481826782],"min":[-1.7712899446487427,1.6919530630111694,-1.0686345100402832],"type":"VEC3"},{"bufferView":31,"componentType":5125,"count":191591,"type":"SCALAR"},{"bufferView":32,"componentType":5126,"count":65531,"type":"VEC3"},{"bufferView":33,"componentType":5126,"count":65531,"type":"VEC4"},{"bufferView":34,"componentType":5126,"count":65531,"type":"VEC4"},{"bufferView":35,"componentType":5126,"count":65531,"type":"VEC2"},{"bufferView":36,"componentType":5126,"count":65531,"max":[-1.0701587200164795,1.9585342407226562,-0.6993784308433533],"min":[-1.715339183807373,1.5893000364303589,-1.1023072004318237],"type":"VEC3"},{"bufferView":37,"componentType":5125,"count":187943,"type":"SCALAR"},{"bufferView":38,"componentType":5126,"count":65531,"type":"VEC3"},{"bufferView":39,"componentType":5126,"count":65531,"type":"VEC4"},{"bufferView":40,"componentType":5126,"count":65531,"type":"VEC4"},{"bufferView":41,"componentType":5126,"count":65531,"type":"VEC2"},{"bufferView":42,"componentType":5126,"count":65531,"max":[-1.1599550247192383,2.1425516605377197,0.13729476928710938],"min":[-1.7679730653762817,1.593240737915039,-1.0365617275238037],"type":"VEC3"},{"bufferView":43,"componentType":5125,"count":168276,"type":"SCALAR"},{"bufferView":44,"componentType":5126,"count":65531,"type":"VEC3"},{"bufferView":45,"componentType":5126,"count":65531,"type":"VEC4"},{"bufferView":46,"componentType":5126,"count":65531,"type":"VEC4"},{"bufferView":47,"componentType":5126,"count":65531,"type":"VEC2"},{"bufferView":48,"componentType":5126,"count":65531,"max":[-1.0571093559265137,2.2474536895751953,0.06591186672449112],"min":[-1.7709627151489258,1.6148079633712769,-1.0332858562469482],"type":"VEC3"},{"bufferView":49,"componentType":5125,"count":136458,"type":"SCALAR"},{"bufferView":50,"componentType":5126,"count":65531,"type":"VEC3"},{"bufferView":51,"componentType":5126,"count":65531,"type":"VEC4"},{"bufferView":52,"componentType":5126,"count":65531,"type":"VEC4"},{"bufferView":53,"componentType":5126,"count":65531,"type":"VEC2"},{"bufferView":54,"componentType":5126,"count":65533,"max":[-1.0744140148162842,2.2910592555999756,-0.7032256722450256],"min":[-1.7711372375488281,1.5903279781341553,-1.1068400144577026],"type":"VEC3"},{"bufferView":55,"componentType":5125,"count":137162,"type":"SCALAR"},{"bufferView":56,"componentType":5126,"count":65533,"type":"VEC3"},{"bufferView":57,"componentType":5126,"count":65533,"type":"VEC4"},{"bufferView":58,"componentType":5126,"count":65533,"type":"VEC4"},{"bufferView":59,"componentType":5126,"count":65533,"type":"VEC2"},{"bufferView":60,"componentType":5126,"count":28217,"max":[-1.0599898099899292,2.286818742752075,-0.4585277736186981],"min":[-1.393905520439148,1.8259825706481934,-1.1051639318466187],"type":"VEC3"},{"bufferView":61,"componentType":5125,"count":57515,"type":"SCALAR"},{"bufferView":62,"componentType":5126,"count":28217,"type":"VEC3"},{"bufferView":63,"componentType":5126,"count":28217,"type":"VEC4"},{"bufferView":64,"componentType":5126,"count":28217,"type":"VEC4"},{"bufferView":65,"componentType":5126,"count":28217,"type":"VEC2"}],"asset":{"version":"2.0"},"bufferViews":[{"buffer":0,"byteLength":786372,"target":34962,"byteOffset":0},{"buffer":0,"byteLength":774476,"target":34963,"byteOffset":786372},{"buffer":0,"byteLength":786372,"target":34962,"byteOffset":1560848},{"buffer":0,"byteLength":1048496,"target":34962,"byteOffset":2347220},{"buffer":0,"byteLength":1048496,"target":34962,"byteOffset":3395716},{"buffer":0,"byteLength":524248,"target":34962,"byteOffset":4444212},{"buffer":0,"byteLength":786372,"target":34962,"byteOffset":4968460},{"buffer":0,"byteLength":767560,"target":34963,"byteOffset":5754832},{"buffer":0,"byteLength":786372,"target":34962,"byteOffset":6522392},{"buffer":0,"byteLength":1048496,"target":34962,"byteOffset":7308764},{"buffer":0,"byteLength":1048496,"target":34962,"byteOffset":8357260},{"buffer":0,"byteLength":524248,"target":34962,"byteOffset":9405756},{"buffer":0,"byteLength":786372,"target":34962,"byteOffset":9930004},{"buffer":0,"byteLength":740840,"target":34963,"byteOffset":10716376},{"buffer":0,"byteLength":786372,"target":34962,"byteOffset":11457216},{"buffer":0,"byteLength":1048496,"target":34962,"byteOffset":12243588},{"buffer":0,"byteLength":1048496,"target":34962,"byteOffset":13292084},{"buffer":0,"byteLength":524248,"target":34962,"byteOffset":14340580},{"buffer":0,"byteLength":786372,"target":34962,"byteOffset":14864828},{"buffer":0,"byteLength":763264,"target":34963,"byteOffset":15651200},{"buffer":0,"byteLength":786372,"target":34962,"byteOffset":16414464},{"buffer":0,"byteLength":1048496,"target":34962,"byteOffset":17200836},{"buffer":0,"byteLength":1048496,"target":34962,"byteOffset":18249332},{"buffer":0,"byteLength":524248,"target":34962,"byteOffset":19297828},{"buffer":0,"byteLength":786372,"target":34962,"byteOffset":19822076},{"buffer":0,"byteLength":756484,"target":34963,"byteOffset":20608448},{"buffer":0,"byteLength":786372,"target":34962,"byteOffset":21364932},{"buffer":0,"byteLength":1048496,"target":34962,"byteOffset":22151304},{"buffer":0,"byteLength":1048496,"target":34962,"byteOffset":23199800},{"buffer":0,"byteLength":524248,"target":34962,"byteOffset":24248296},{"buffer":0,"byteLength":786372,"target":34962,"byteOffset":24772544},{"buffer":0,"byteLength":766364,"target":34963,"byteOffset":25558916},{"buffer":0,"byteLength":786372,"target":34962,"byteOffset":26325280},{"buffer":0,"byteLength":1048496,"target":34962,"byteOffset":27111652},{"buffer":0,"byteLength":1048496,"target":34962,"byteOffset":28160148},{"buffer":0,"byteLength":524248,"target":34962,"byteOffset":29208644},{"buffer":0,"byteLength":786372,"target":34962,"byteOffset":29732892},{"buffer":0,"byteLength":751772,"target":34963,"byteOffset":30519264},{"buffer":0,"byteLength":786372,"target":34962,"byteOffset":31271036},{"buffer":0,"byteLength":1048496,"target":34962,"byteOffset":32057408},{"buffer":0,"byteLength":1048496,"target":34962,"byteOffset":33105904},{"buffer":0,"byteLength":524248,"target":34962,"byteOffset":34154400},{"buffer":0,"byteLength":786372,"target":34962,"byteOffset":34678648},{"buffer":0,"byteLength":673104,"target":34963,"byteOffset":35465020},{"buffer":0,"byteLength":786372,"target":34962,"byteOffset":36138124},{"buffer":0,"byteLength":1048496,"target":34962,"byteOffset":36924496},{"buffer":0,"byteLength":1048496,"target":34962,"byteOffset":37972992},{"buffer":0,"byteLength":524248,"target":34962,"byteOffset":39021488},{"buffer":0,"byteLength":786372,"target":34962,"byteOffset":39545736},{"buffer":0,"byteLength":545832,"target":34963,"byteOffset":40332108},{"buffer":0,"byteLength":786372,"target":34962,"byteOffset":40877940},{"buffer":0,"byteLength":1048496,"target":34962,"byteOffset":41664312},{"buffer":0,"byteLength":1048496,"target":34962,"byteOffset":42712808},{"buffer":0,"byteLength":524248,"target":34962,"byteOffset":43761304},{"buffer":0,"byteLength":786396,"target":34962,"byteOffset":44285552},{"buffer":0,"byteLength":548648,"target":34963,"byteOffset":45071948},{"buffer":0,"byteLength":786396,"target":34962,"byteOffset":45620596},{"buffer":0,"byteLength":1048528,"target":34962,"byteOffset":46406992},{"buffer":0,"byteLength":1048528,"target":34962,"byteOffset":47455520},{"buffer":0,"byteLength":524264,"target":34962,"byteOffset":48504048},{"buffer":0,"byteLength":338604,"target":34962,"byteOffset":49028312},{"buffer":0,"byteLength":230060,"target":34963,"byteOffset":49366916},{"buffer":0,"byteLength":338604,"target":34962,"byteOffset":49596976},{"buffer":0,"byteLength":451472,"target":34962,"byteOffset":49935580},{"buffer":0,"byteLength":451472,"target":34962,"byteOffset":50387052},{"buffer":0,"byteLength":225736,"target":34962,"byteOffset":50838524}],"buffers":[{"uri":"model_buffers.bin","byteLength":51064260}],"materials":[{}],"meshes":[{"primitives":[{"attributes":{"COLOR_0":4,"NORMAL":2,"POSITION":0,"TANGENT":3,"TEXCOORD_0":5},"indices":1,"material":0,"mode":5}]},{"primitives":[{"attributes":{"COLOR_0":10,"NORMAL":8,"POSITION":6,"TANGENT":9,"TEXCOORD_0":11},"indices":7,"material":0,"mode":5}]},{"primitives":[{"attributes":{"COLOR_0":16,"NORMAL":14,"POSITION":12,"TANGENT":15,"TEXCOORD_0":17},"indices":13,"material":0,"mode":5}]},{"primitives":[{"attributes":{"COLOR_0":22,"NORMAL":20,"POSITION":18,"TANGENT":21,"TEXCOORD_0":23},"indices":19,"material":0,"mode":5}]},{"primitives":[{"attributes":{"COLOR_0":28,"NORMAL":26,"POSITION":24,"TANGENT":27,"TEXCOORD_0":29},"indices":25,"material":0,"mode":5}]},{"primitives":[{"attributes":{"COLOR_0":34,"NORMAL":32,"POSITION":30,"TANGENT":33,"TEXCOORD_0":35},"indices":31,"material":0,"mode":5}]},{"primitives":[{"attributes":{"COLOR_0":40,"NORMAL":38,"POSITION":36,"TANGENT":39,"TEXCOORD_0":41},"indices":37,"material":0,"mode":5}]},{"primitives":[{"attributes":{"COLOR_0":46,"NORMAL":44,"POSITION":42,"TANGENT":45,"TEXCOORD_0":47},"indices":43,"material":0,"mode":5}]},{"primitives":[{"attributes":{"COLOR_0":52,"NORMAL":50,"POSITION":48,"TANGENT":51,"TEXCOORD_0":53},"indices":49,"material":0,"mode":5}]},{"primitives":[{"attributes":{"COLOR_0":58,"NORMAL":56,"POSITION":54,"TANGENT":57,"TEXCOORD_0":59},"indices":55,"material":0,"mode":5}]},{"primitives":[{"attributes":{"COLOR_0":64,"NORMAL":62,"POSITION":60,"TANGENT":63,"TEXCOORD_0":65},"indices":61,"material":0,"mode":5}]}],"nodes":[{"mesh":0,"name":"_gltfNode_0"},{"mesh":1,"name":"_gltfNode_1"},{"mesh":2,"name":"_gltfNode_2"},{"mesh":3,"name":"_gltfNode_3"},{"mesh":4,"name":"_gltfNode_4"},{"mesh":5,"name":"_gltfNode_5"},{"mesh":6,"name":"_gltfNode_6"},{"mesh":7,"name":"_gltfNode_7"},{"mesh":8,"name":"_gltfNode_8"},{"mesh":9,"name":"_gltfNode_9"},{"mesh":10,"name":"_gltfNode_10"},{"children":[0,1,2,3,4,5,6,7,8,9,10],"name":"GLTF Converted Scene","rotation":[-0.7071067811865475,0.0,0.0,0.7071067811865476],"scale":[1.0,1.0,1.0],"translation":[0.0,0.0,0.0]}],"scene":0,"scenes":[{"nodes":[11]}]}